<?xml version="1.0" encoding="UTF-8"?><svg id="Capa_2" xmlns="http://www.w3.org/2000/svg" viewBox="0 0 699.89 255.2"><defs><style>.cls-1{fill:#1d1d1b;stroke-width:0px;}</style></defs><g id="Capa_1-2"><path class="cls-1" d="m0,141.87V2.09h73.44c25.04,0,41.52,12.52,41.52,34.63,0,16.06-8.97,28.17-28.17,31.08v1.25c21.49,3.55,32.55,16.27,32.55,34.22,0,24.2-17.11,38.6-43.81,38.6H0ZM14.81,63.01h56.12c18.99,0,29.21-7.51,29.21-23.58s-8.97-23.78-27.95-23.78H14.81v47.36Zm0,65.3h59.46c19.82,0,30.04-8.14,30.04-26.5s-10.64-26.08-30.04-26.08H14.81v52.57Z"/><path class="cls-1" d="m131.85,71.98C131.85,28.37,160.85,0,202.36,0s70.93,28.37,70.93,71.98-29,71.98-70.93,71.98-70.51-28.37-70.51-71.98Zm125.8,0c0-37.97-19.82-57.58-55.29-57.58s-54.87,19.61-54.87,57.58,19.61,57.58,54.87,57.58,55.29-19.61,55.29-57.58Z"/><path class="cls-1" d="m293.11,141.87V2.09h68.43c29.21,0,49.03,14.81,49.03,40.47,0,23.57-17.32,38.18-43.19,38.81v1.04c9.18,2.5,14.4,8.55,19.19,16.69l26.29,42.77h-17.11l-24.82-40.47c-7.1-11.68-14.4-16.69-32.97-16.69h-30.04v57.16h-14.81Zm14.81-69.06h53.41c22.12,0,33.8-8.76,33.8-28.58s-11.68-28.58-33.8-28.58h-53.41v57.16Z"/><path class="cls-1" d="m424.74,71.98c0-43.6,28.79-71.98,69.68-71.98,36.09,0,63.42,20.24,63.42,51.95v2.5h-16.07v-2.5c0-23.78-16.48-37.55-47.15-37.55-34.84,0-54.24,19.61-54.24,57.58s19.4,57.58,54.24,57.58c30.67,0,47.15-13.77,47.15-37.55v-2.5h16.07v2.5c0,31.71-27.12,51.95-63.42,51.95-40.89,0-69.68-28.37-69.68-71.98Z"/><path class="cls-1" d="m577.66,141.87V2.09h14.81v62.59h89.92V2.09h14.81v139.78h-14.81v-63.63h-89.92v63.63h-14.81Z"/><path class="cls-1" d="m513.98,255.18c-5.77,0-8.25-2.96-8.25-8.49v-17.7c0-3.12-.88-3.93-4-3.93h-3.21v-3.04h3.21c3.12,0,4-.8,4-3.92v-17.7c0-5.53,2.48-8.49,8.25-8.49h.8v2.24h-1.12c-4,0-5.53,1.2-5.53,5.85v17.78c0,4.17-1.76,5.61-4.57,5.61v.32c2.8,0,4.57,1.44,4.57,5.61v17.78c0,4.65,1.52,5.85,5.53,5.85h1.12v2.24h-.8Z"/><path class="cls-1" d="m547.46,191.91h-25.78v2.24h1.12c1.19,0,2.14.1,2.92.41h21.74c17.84,0,27.1,10.75,27.1,29s-9.26,29-27.1,29h-21.84c-.75.27-1.7.37-2.82.37h-1.12v2.27h25.78c18.42,0,30.02-12.48,30.02-31.64s-11.6-31.64-30.02-31.64Z"/><path class="cls-1" d="m585.56,255.18v-63.27h45.24v2.64h-42.4v27.48h40.99v2.64h-40.99v27.86h42.4v2.64h-45.24Z"/><path class="cls-1" d="m667.5,255.18l-28.62-63.27h3.12l27.29,60.35h.28l27.29-60.35h3.02l-28.61,63.27h-3.78Z"/><path class="cls-1" d="m534.74,222.02c-3.15,0-4.04-.81-4.04-3.93v-17.7c0-2.51-.47-4.44-1.56-5.83-1.32-1.76-3.49-2.65-6.68-2.65h-.78v2.24h1.12c1.19,0,2.14.1,2.92.41,1.87.61,2.61,2.17,2.61,5.43v17.81c0,4.14,1.76,5.6,4.54,5.6v.31c-2.78,0-4.54,1.46-4.54,5.63v17.77c0,3.32-.78,4.88-2.71,5.46-.75.27-1.7.37-2.82.37h-1.12v2.27h.78c3.19,0,5.36-.92,6.68-2.65,1.09-1.42,1.56-3.39,1.56-5.87v-17.7c0-3.12.88-3.9,4.04-3.9h3.19v-3.05h-3.19Z"/></g></svg>