<?xml version="1.0" encoding="UTF-8"?><svg id="Capa_2" xmlns="http://www.w3.org/2000/svg" viewBox="0 0 497.32 280.88"><defs><style>.cls-1{fill:#fff;stroke-width:0px;}</style></defs><g id="Capa_1-2"><path class="cls-1" d="m431.98,136.25v-2.58c38.5-5.8,56.56-31.85,56.56-64.07C488.54,25.13,455.43,0,405.17,0h-147.41v10.15h4.91c17.8,0,24.57,5.4,24.57,25.94l.24,73.38c0,5.24.65,9.5,1.85,12.89,2.98,8.7,9.51,12,18.37,12v1.37c-8.94,0-15.55,3.38-18.45,12.16-1.21,3.38-1.77,7.57-1.77,12.73l-.24,84.42c0,20.54-6.77,25.94-24.57,25.94h-4.91v9.91h3.54c1.85,0,3.63-.08,5.32-.24h142.74c53.65,0,87.96-28.84,87.96-77.49,0-36.01-22.16-59.81-65.34-66.9Zm-133.86-25.33l-.24-73.06c0-3.79-.24-7.33-.89-10.63h105.68c38.1,0,56.14,15.14,56.14,47.77,0,36.91-20.57,47.36-58.64,47.36h-100.2c-1.29-2.66-1.85-6.36-1.85-11.44Zm108.74,142.49h-109.71c.48-3.14.72-6.52.72-10.15l.24-84.01c0-4.99.48-8.7,1.77-11.36h106.97c38.99,0,60.33,16.35,60.33,52.36s-20.54,53.16-60.33,53.16Z"/><path class="cls-1" d="m65.34,136.25v-2.58c-38.5-5.8-56.56-31.85-56.56-64.07C8.78,25.13,41.89,0,92.15,0h147.41v10.15h-4.91c-17.8,0-24.57,5.4-24.57,25.94l-.24,73.38c0,5.24-.65,9.5-1.85,12.89-2.98,8.7-9.51,12-18.37,12v1.37c8.94,0,15.55,3.38,18.45,12.16,1.21,3.38,1.77,7.57,1.77,12.73l.24,84.42c0,20.54,6.77,25.94,24.57,25.94h4.91v9.91h-3.54c-1.85,0-3.63-.08-5.32-.24H87.96C34.31,280.64,0,251.8,0,203.15c0-36.01,22.16-59.81,65.34-66.9Zm133.86-25.33l.24-73.06c0-3.79.24-7.33.89-10.63h-105.68c-38.1,0-56.14,15.14-56.14,47.77,0,36.91,20.57,47.36,58.64,47.36h100.2c1.29-2.66,1.85-6.36,1.85-11.44Zm-108.74,142.49h109.71c-.48-3.14-.72-6.52-.72-10.15l-.24-84.01c0-4.99-.48-8.7-1.77-11.36h-106.97c-38.99,0-60.33,16.35-60.33,52.36s20.54,53.16,60.33,53.16Z"/></g></svg>